<svg width="800" height="800" viewBox="0 0 800 800" fill="none" xmlns="http://www.w3.org/2000/svg">
<path d="M400 0C179.087 0 0 179.087 0 400C0 620.913 179.087 800 400 800C620.913 800 800 620.913 800 400C800 179.087 620.913 0 400 0ZM400 86.914C572.913 86.914 713.037 227.131 713.037 400C713.037 572.87 572.913 713.037 400 713.037C227.087 713.037 86.9627 572.87 86.9627 400C86.9633 227.131 227.087 86.914 400 86.914ZM290.283 203.565L203.565 290.283L313.281 400L203.565 509.717L290.283 596.435L400 486.719L509.717 596.435L596.435 509.717L486.719 400L596.435 290.283L509.717 203.565L400 313.281L290.283 203.565Z" fill="#4D90FE"/>
</svg>
