<svg width="1132" height="1132" viewBox="0 0 1132 1132" fill="none" xmlns="http://www.w3.org/2000/svg">
<path d="M632.151 404.275C627.733 393.587 617.306 386.627 605.744 386.627L415.217 386.627C399.429 386.627 386.63 399.426 386.63 415.214L386.63 605.742C386.63 613.477 389.745 620.697 395.006 625.959C397.609 628.562 400.74 630.687 404.277 632.149C414.958 636.573 427.252 634.129 435.427 625.955L625.955 435.427C634.132 427.25 636.575 414.956 632.151 404.275ZM443.8 536.732L443.799 443.799H536.732L443.8 536.732Z" fill="black"/>
<path d="M744.741 525.629C744.739 514.069 737.784 503.642 727.094 499.222C716.412 494.798 704.119 497.241 695.944 505.416L505.416 695.944C497.239 704.121 494.796 716.415 499.222 727.094C500.686 730.633 502.809 733.761 505.412 736.364C510.671 741.624 517.894 744.741 525.629 744.741L716.156 744.741C731.945 744.741 744.744 731.942 744.744 716.154L744.741 525.629ZM594.639 687.571L687.574 594.636L687.574 687.569L594.639 687.571Z" fill="black"/>
<path d="M965.873 565.683C965.873 345.021 786.35 165.498 565.688 165.498C345.023 165.5 165.502 345.021 165.5 565.685C165.5 676.014 210.381 776.066 282.843 848.528C355.305 920.99 455.354 965.873 565.685 965.871C786.35 965.873 965.873 786.35 965.873 565.683ZM565.688 908.703C376.548 908.703 222.67 754.825 222.67 565.685C222.668 376.548 376.548 222.668 565.683 222.668C660.255 222.668 746.008 261.137 808.121 323.25C870.234 385.363 908.703 471.116 908.703 565.688C908.705 754.825 754.825 908.705 565.688 908.703Z" fill="black"/>
</svg>
