<svg width="1132" height="1132" viewBox="0 0 1132 1132" fill="none" xmlns="http://www.w3.org/2000/svg">
<g clip-path="url(#clip0_19_7)">
<path d="M848.849 283.164C1005.07 439.386 1005.07 692.627 848.847 848.838C692.627 1005.07 439.386 1005.07 283.164 848.849C126.934 692.635 126.937 439.377 283.162 283.153C439.377 126.938 692.632 126.946 848.849 283.164Z" fill="#4D90FE"/>
<g filter="url(#filter0_d_19_7)">
<path d="M767.828 594.457L767.828 749.166L383.785 365.123L538.494 365.123C542.138 365.123 545.434 363.648 547.82 361.261C550.207 358.875 551.684 355.577 551.682 351.935C551.682 344.647 545.781 338.745 538.493 338.745L351.935 338.745C344.647 338.745 338.745 344.647 338.745 351.935V538.493C338.745 545.781 344.647 551.682 351.935 551.682C359.223 551.682 365.124 545.781 365.124 538.493L365.124 383.784L749.168 767.828L594.46 767.828C587.172 767.828 581.27 773.73 581.27 781.018C581.27 788.306 587.172 794.207 594.46 794.207L781.018 794.207C784.662 794.207 787.958 792.732 790.344 790.346C792.731 787.959 794.207 784.662 794.206 781.019L794.206 594.461C794.206 587.173 788.305 581.272 781.016 581.272C773.731 581.266 767.827 587.168 767.828 594.457Z" fill="#F4F6F9"/>
</g>
</g>
<defs>
<filter id="filter0_d_19_7" x="338.745" y="338.745" width="478.061" height="487.062" filterUnits="userSpaceOnUse" color-interpolation-filters="sRGB">
<feFlood flood-opacity="0" result="BackgroundImageFix"/>
<feColorMatrix in="SourceAlpha" type="matrix" values="0 0 0 0 0 0 0 0 0 0 0 0 0 0 0 0 0 0 127 0" result="hardAlpha"/>
<feOffset dx="17" dy="26"/>
<feGaussianBlur stdDeviation="2.8"/>
<feComposite in2="hardAlpha" operator="out"/>
<feColorMatrix type="matrix" values="0 0 0 0 0 0 0 0 0 0 0 0 0 0 0 0 0 0 0.25 0"/>
<feBlend mode="normal" in2="BackgroundImageFix" result="effect1_dropShadow_19_7"/>
<feBlend mode="normal" in="SourceGraphic" in2="effect1_dropShadow_19_7" result="shape"/>
</filter>
<clipPath id="clip0_19_7">
<rect width="800" height="800" fill="white" transform="translate(0.314453 566) rotate(-45)"/>
</clipPath>
</defs>
</svg>
