<svg width="31" height="39" viewBox="0 0 31 39" fill="none" xmlns="http://www.w3.org/2000/svg">
<g clip-path="url(#clip0_12_26)">
<path fill-rule="evenodd" clip-rule="evenodd" d="M18.6189 8.61839C16.8542 6.96503 14.1951 6.96503 12.4304 8.61839L0.521089 19.7767C-0.119753 20.3771 -0.177474 21.4115 0.392157 22.087C0.961788 22.7623 1.94306 22.8232 2.58388 22.2228L3.10495 21.7347V30.9258C3.10487 32.3764 3.10481 33.6263 3.23247 34.6273C3.36929 35.6999 3.67784 36.7282 4.46907 37.5621C5.2603 38.3962 6.23579 38.7213 7.25347 38.8656C8.20305 39.0002 9.38884 39 10.7651 39H20.2842C21.6605 39 22.8463 39.0002 23.7959 38.8656C24.8135 38.7213 25.7891 38.3962 26.5802 37.5621C27.3715 36.7282 27.68 35.6999 27.8169 34.6273C27.9445 33.6263 27.9445 32.3764 27.9444 30.9259V21.7347L28.4654 22.2228C29.1063 22.8232 30.0876 22.7623 30.6572 22.087C31.2268 21.4115 31.1692 20.3771 30.5283 19.7767L18.6189 8.61839ZM15.5247 29.1817C14.6672 29.1817 13.9722 29.9143 13.9722 30.8181V34.0908C13.9722 34.9946 13.2772 35.7272 12.4197 35.7272C11.5623 35.7272 10.8673 34.9946 10.8673 34.0908V30.8181C10.8673 28.1068 12.9524 25.9089 15.5247 25.9089C18.0969 25.9089 20.1821 28.1068 20.1821 30.8181V34.0908C20.1821 34.9946 19.487 35.7272 18.6296 35.7272C17.7722 35.7272 17.0771 34.9946 17.0771 34.0908V30.8181C17.0771 29.9143 16.3821 29.1817 15.5247 29.1817Z" fill="#4D90FE"/>
</g>
<defs>
<clipPath id="clip0_12_26">
<rect width="31" height="39" fill="white"/>
</clipPath>
</defs>
</svg>
