<svg width="30" height="39" viewBox="0 0 30 39" fill="none" xmlns="http://www.w3.org/2000/svg">
<path fill-rule="evenodd" clip-rule="evenodd" d="M16.2808 38.401C16.216 38.4786 16.1443 38.5502 16.0665 38.6149C15.359 39.2027 14.3082 39.1069 13.7192 38.401C4.57307 27.4384 0 19.4275 0 14.3681C0 6.43283 7.04883 0 15 0C22.9512 0 30 6.43283 30 14.3681C30 19.4275 25.427 27.4384 16.2808 38.401ZM15 19.9601C17.7615 19.9601 20 17.7261 20 14.9701C20 12.2142 17.7615 9.98006 15 9.98006C12.2385 9.98006 10 12.2142 10 14.9701C10 17.7261 12.2385 19.9601 15 19.9601Z" fill="#4D90FE"/>
</svg>
