<svg width="800" height="800" viewBox="0 0 800 800" fill="none" xmlns="http://www.w3.org/2000/svg">
<path d="M333.333 400L466.667 533.333M466.667 400L333.333 533.333M133.333 200H666.667M533.333 200L524.313 172.936C515.57 146.708 511.197 133.595 503.09 123.899C495.93 115.338 486.737 108.711 476.35 104.626C464.587 100 450.767 100 423.12 100H376.88C349.233 100 335.413 100 323.65 104.626C313.264 108.711 304.069 115.338 296.91 123.899C288.802 133.595 284.431 146.708 275.688 172.936L266.667 200M600 200V540C600 596.007 600 624.007 589.1 645.4C579.513 664.217 564.217 679.513 545.4 689.1C524.007 700 496.007 700 440 700H360C303.995 700 275.992 700 254.601 689.1C235.785 679.513 220.487 664.217 210.899 645.4C200 624.007 200 596.007 200 540V200" stroke="#606060" stroke-opacity="0.71" stroke-width="66.6667" stroke-linecap="round" stroke-linejoin="round"/>
</svg>
